<?xml version="1.0" standalone="no"?>
<!DOCTYPE svg PUBLIC "-//W3C//DTD SVG 20010904//EN"
 "http://www.w3.org/TR/2001/REC-SVG-20010904/DTD/svg10.dtd">
<svg version="1.0" xmlns="http://www.w3.org/2000/svg"
 width="80" height="80" viewBox="0 0 1440.000000 1440.000000"
 preserveAspectRatio="xMidYMid meet">

<g transform="translate(0.000000,1440.000000) scale(0.100000,-0.100000)"
fill="#00f0ff" stroke="none">
<path d="M4101 10715 c-146 -41 -286 -152 -354 -282 -49 -93 -66 -165 -74
-300 l-6 -113 -456 0 c-378 0 -467 -3 -516 -15 -226 -59 -371 -277 -336 -507
29 -188 153 -325 336 -373 49 -12 139 -15 527 -15 l468 0 0 -172 c1 -249 17
-567 35 -693 79 -543 296 -848 583 -822 130 13 261 104 337 235 l30 52 420 0
420 0 60 -28 c139 -66 342 -254 448 -414 133 -201 192 -369 222 -633 20 -170
30 -216 71 -302 40 -83 90 -132 173 -165 l56 -23 650 0 650 0 59 24 c150 60
220 189 246 453 19 194 55 328 130 483 114 238 329 468 541 580 l67 35 423 -1
424 -1 50 -76 c148 -226 399 -274 592 -116 124 101 229 319 282 584 36 180 50
345 57 683 l7 327 466 0 c505 0 533 2 631 56 87 47 174 147 207 238 74 207 -5
430 -190 540 -106 62 -141 66 -660 66 l-464 0 -7 110 c-12 189 -54 300 -155
412 -113 124 -257 188 -424 188 -180 0 -294 -47 -418 -170 -122 -121 -169
-241 -169 -432 l0 -108 -472 0 c-512 0 -526 -2 -634 -56 -73 -37 -157 -127
-197 -211 -27 -59 -32 -81 -35 -168 -3 -83 0 -111 18 -164 52 -155 159 -255
317 -296 47 -12 143 -15 530 -15 l473 0 0 -245 c0 -189 -3 -245 -12 -245 -31
0 -270 43 -343 61 -185 47 -291 86 -535 199 -369 171 -595 240 -940 287 -196
26 -853 26 -1050 0 -334 -45 -540 -108 -923 -281 -209 -94 -401 -167 -532
-200 -92 -24 -318 -66 -351 -66 -12 0 -14 42 -14 245 l0 245 473 0 c502 0 523
2 623 50 77 38 159 122 201 208 38 75 38 77 38 196 0 118 -1 123 -36 197 -60
125 -161 209 -294 244 -49 12 -139 15 -532 15 l-473 0 0 100 c0 121 -12 184
-55 275 -63 137 -181 248 -320 301 -59 23 -89 27 -190 30 -86 3 -135 0 -174
-11z m284 -304 c39 -18 77 -46 104 -77 l43 -49 -131 -3 c-72 -1 -191 -1 -263
0 l-133 3 61 61 c98 99 203 120 319 65z m5840 12 c34 -11 67 -35 110 -77 l60
-61 -132 -3 c-73 -1 -192 -1 -264 0 l-131 3 43 49 c83 94 202 128 314 89z
m1454 -708 c57 -34 76 -68 76 -138 0 -72 -18 -103 -80 -139 l-40 -23 -1505 0
c-1409 0 -1507 1 -1537 17 -87 48 -110 170 -45 246 54 65 -41 61 1602 59 1475
-2 1495 -2 1529 -22z m-5859 -11 c44 -25 80 -87 80 -137 0 -52 -32 -111 -77
-138 l-38 -24 -1483 -3 c-1003 -1 -1496 1 -1522 8 -46 12 -95 51 -115 91 -30
57 -15 139 33 182 53 48 2 46 1592 44 1489 -2 1495 -2 1530 -23z m1717 -815
c359 -29 587 -89 953 -249 422 -184 579 -236 860 -285 115 -20 361 -45 449
-45 l64 0 -7 63 c-3 34 -9 155 -13 270 l-6 207 293 0 293 0 -6 -222 c-10 -352
-47 -561 -133 -743 -30 -64 -97 -143 -131 -156 -54 -20 -120 45 -189 189 l-44
92 -535 0 c-590 0 -560 3 -699 -67 -223 -111 -480 -364 -618 -609 -129 -229
-181 -409 -217 -744 -11 -102 -29 -139 -72 -151 -41 -12 -1120 -10 -1161 1
-21 6 -43 20 -48 31 -6 11 -20 93 -31 182 -42 348 -127 579 -306 830 -70 99
-252 284 -348 355 -38 29 -122 78 -185 110 l-114 57 -553 3 -553 3 -44 -93
c-49 -103 -93 -161 -137 -184 -27 -13 -33 -13 -65 2 -71 34 -151 184 -194 368
-36 149 -51 287 -57 519 l-6 227 293 0 293 0 -6 -207 c-4 -115 -10 -236 -13
-270 l-7 -63 60 0 c101 0 363 28 505 55 253 46 410 100 816 279 343 151 588
216 927 245 146 12 544 13 692 0z"/>
<path d="M5519 7490 c-26 -4 -67 -17 -91 -28 -66 -29 -350 -219 -466 -311
-722 -575 -1069 -1519 -991 -2696 13 -205 44 -447 64 -505 41 -119 162 -233
286 -271 57 -17 88 -20 167 -17 85 4 105 8 161 37 88 45 173 132 213 218 41
86 47 190 23 383 -9 74 -19 248 -22 385 -7 357 21 607 102 883 146 502 441
882 849 1095 108 57 150 97 193 187 35 73 44 217 18 306 -49 171 -200 306
-371 334 -65 11 -70 11 -135 0z m158 -308 c40 -29 63 -79 63 -139 0 -61 -5
-67 -140 -145 -461 -269 -796 -729 -945 -1301 -108 -417 -129 -832 -68 -1373
l17 -150 -23 -38 c-62 -99 -205 -99 -264 1 -61 104 -88 861 -43 1203 110 834
484 1469 1086 1844 52 33 104 67 115 77 61 54 144 62 202 21z"/>
<path d="M8763 7485 c-208 -58 -334 -225 -336 -440 0 -94 26 -175 83 -250 39
-52 59 -67 154 -118 146 -77 249 -152 365 -267 337 -333 525 -782 572 -1368
15 -184 6 -538 -17 -722 -10 -74 -18 -173 -18 -220 -1 -75 3 -93 32 -154 41
-87 138 -183 231 -229 62 -30 71 -32 181 -32 108 0 119 2 182 32 110 52 196
146 242 263 44 110 82 587 73 914 -13 490 -97 899 -263 1286 -202 467 -537
863 -959 1132 -60 38 -131 85 -158 103 -101 72 -255 101 -364 70z m184 -297
c56 -31 147 -90 261 -171 334 -235 597 -562 766 -951 116 -266 186 -537 228
-876 20 -165 17 -716 -5 -915 -22 -189 -31 -232 -60 -263 -67 -72 -166 -69
-230 7 -36 43 -40 88 -23 231 40 323 43 634 10 930 -86 773 -445 1379 -1015
1713 -138 81 -141 84 -146 148 -5 73 17 117 77 147 24 12 56 22 70 22 14 0 44
-10 67 -22z"/>
<path d="M6555 5834 c-55 -48 -113 -97 -129 -111 l-29 -24 54 -56 c200 -205
463 -315 749 -315 287 0 548 110 750 316 48 49 52 57 38 68 -9 7 -68 57 -132
112 l-116 98 -48 -44 c-179 -167 -411 -232 -647 -183 -102 21 -243 94 -319
166 -35 32 -65 59 -67 59 -2 0 -49 -39 -104 -86z"/>
<path d="M6017 5386 c-59 -51 -117 -102 -129 -114 l-21 -20 33 -43 c49 -61
220 -210 316 -274 650 -437 1491 -400 2097 92 71 58 217 208 217 223 0 5 -57
58 -127 118 l-127 109 -81 -81 c-239 -241 -539 -383 -883 -418 -284 -28 -610
53 -866 217 -85 54 -200 150 -263 220 l-58 63 -108 -92z"/>
<path d="M5460 4921 c-74 -60 -136 -113 -137 -118 -6 -16 232 -251 337 -335
206 -164 486 -321 720 -403 393 -137 821 -175 1220 -109 411 69 813 249 1140
510 103 83 342 322 337 337 -2 6 -59 59 -128 118 l-124 107 -130 -127 c-424
-413 -921 -620 -1487 -621 -572 -1 -1089 219 -1506 640 l-107 109 -135 -108z"/>
</g>
</svg>
